<svg width="41" height="24" viewBox="0 0 41 24" fill="none" xmlns="http://www.w3.org/2000/svg">
<path fill-rule="evenodd" clip-rule="evenodd" d="M13.8616 0.0797553C11.4776 0.426866 9.2438 1.72859 7.82553 3.59709C7.58725 3.91102 6.74744 5.11107 5.95926 6.26386L4.52619 8.35997L3.92712 8.62044C2.44456 9.26486 1.09192 10.653 0.486958 12.1508C0.0615628 13.2039 0.0182038 13.5104 0.0175674 15.465L0.0169309 17.2949L0.238897 17.7469C0.490936 18.2601 0.877508 18.6343 1.40513 18.8758C1.70117 19.0112 1.96395 19.0467 2.84601 19.0704L3.92473 19.0995L4.01909 19.7464C4.49635 23.0214 8.39811 24.3644 10.7122 22.0503C11.4737 21.2887 11.9108 20.3318 11.9108 19.4262V19.0849H17.0795L17.3375 18.8544C17.5511 18.6636 17.5956 18.5662 17.5956 18.2893C17.5956 18.0125 17.5511 17.9151 17.3375 17.7243L17.0795 17.4938H11.5281L11.3279 17.1556C11.2178 16.9697 10.9548 16.6496 10.7435 16.4444C9.46219 15.1996 7.72226 14.9307 6.10501 15.7277C5.6026 15.9753 4.67663 16.8559 4.5199 17.2352L4.41306 17.4938H3.31269C1.58199 17.4938 1.56767 17.4777 1.56966 15.5287C1.57133 13.9238 1.67762 13.3365 2.1354 12.4021C2.69699 11.2556 3.73156 10.3639 5.08842 9.85677L5.54564 9.68588L6.83305 7.80203C8.93448 4.72688 9.20936 4.35185 9.76562 3.80067C10.8994 2.67732 12.256 1.98349 13.8687 1.70226C14.4148 1.60703 15.309 1.5822 18.1959 1.5822C22.0673 1.5822 22.6267 1.62365 23.707 1.99057C24.9725 2.4205 26.3473 3.36565 27.1243 4.33992C27.3629 4.63905 28.2654 5.92208 29.1299 7.19103C29.9944 8.45998 30.7708 9.56981 30.8552 9.65732C30.9979 9.80514 31.1454 9.81962 32.936 9.86131C34.7732 9.90411 34.8929 9.91644 35.4989 10.1258C37.1302 10.6891 38.2862 11.852 38.8615 13.5082C39.0572 14.0717 39.0735 14.227 39.1034 15.8032L39.1354 17.4938H36.4439L36.2608 17.1679C35.6525 16.0857 34.1931 15.2661 32.8743 15.2661C31.5622 15.2661 30.093 16.0912 29.4877 17.1681L29.3047 17.4938H26.5783C23.6448 17.4938 23.5253 17.5088 23.3214 17.9031C23.1779 18.1806 23.1779 18.3981 23.3214 18.6756C23.5239 19.0672 23.6571 19.0849 26.3941 19.0849H28.9362V19.508C28.9362 21.6736 31.1745 23.4927 33.4376 23.1667C35.2804 22.9012 36.8124 21.2404 36.8124 19.508V19.0849H38.4396C39.5317 19.0849 40.1354 19.0536 40.2754 18.9898C40.6786 18.8061 40.7108 18.6236 40.7101 16.5232C40.7098 15.4599 40.6728 14.3572 40.6279 14.0728C40.2783 11.8565 38.8698 9.95725 36.8522 8.9814C35.6891 8.41892 35.2207 8.32377 33.3527 8.27055L31.7626 8.22528L30.1316 5.83855C28.8547 3.96997 28.345 3.29405 27.7836 2.72521C26.3841 1.30693 24.6172 0.402283 22.6752 0.10951C22.063 0.0172229 21.0829 -0.00600798 18.1163 0.00123178C16.0379 0.00632348 14.1232 0.0416471 13.8616 0.0797553ZM14.2976 3.22277C12.9676 3.45102 11.7352 4.06727 10.8661 4.93867C10.6312 5.17424 9.91098 6.13371 9.26552 7.0709C8.0502 8.83557 7.95266 9.04926 8.17399 9.4628C8.37981 9.84738 8.47408 9.85621 12.379 9.85621C14.5115 9.85621 16.1209 9.82455 16.2374 9.78024C16.3474 9.73839 16.5018 9.60585 16.5807 9.48555C16.7095 9.28905 16.7266 9.0168 16.7491 6.7969C16.763 5.43845 16.7517 4.17412 16.7241 3.98732C16.6966 3.80051 16.5901 3.54991 16.4874 3.43041C16.3058 3.21911 16.2758 3.21282 15.3986 3.20089C14.9024 3.19412 14.4069 3.20399 14.2976 3.22277ZM18.7773 3.24966C18.6814 3.29047 18.5382 3.42269 18.4591 3.54346C18.3273 3.74458 18.3152 3.99424 18.3152 6.51479C18.3152 9.03192 18.3275 9.28515 18.4586 9.4854C18.5375 9.60569 18.6919 9.73839 18.8019 9.78024C19.1123 9.89822 27.6027 9.8804 27.8644 9.76114C28.1035 9.65223 28.2997 9.32055 28.2997 9.02515C28.2997 8.89754 27.9102 8.24175 27.246 7.25109C25.8677 5.1954 25.1076 4.4007 24.0036 3.86161C22.835 3.29095 22.5398 3.23335 20.6224 3.2024C19.6965 3.18736 18.874 3.20845 18.7773 3.24966ZM15.0931 8.26506H12.7415C10.8814 8.26506 10.4022 8.24429 10.4494 8.16561C10.8397 7.51379 11.8014 6.25312 12.1652 5.91627C12.8432 5.28864 13.9995 4.79252 14.8346 4.77112L15.0931 4.76452V8.26506ZM22.3659 4.92188C23.5979 5.23701 24.3615 5.84769 25.3535 7.3114L25.9999 8.26506H19.9462V4.76452H20.8483C21.4868 4.76452 21.9304 4.8105 22.3659 4.92188ZM18.7349 11.5714C18.4552 11.7232 18.355 11.918 18.355 12.3102C18.355 12.5658 18.402 12.6661 18.5998 12.8326C18.8255 13.0225 18.9033 13.0385 19.6004 13.0385C20.3297 13.0385 20.3643 13.0303 20.5887 12.806C20.9964 12.3983 20.8563 11.7175 20.3268 11.5329C19.968 11.4078 18.9928 11.4314 18.7349 11.5714ZM8.94507 17.0845C9.44302 17.3388 9.82617 17.7077 10.0651 18.1628C10.247 18.5095 10.2777 18.6652 10.2777 19.244C10.2777 19.8229 10.247 19.9786 10.0651 20.3252C9.63459 21.1455 8.89033 21.5867 7.93293 21.5893C7.46004 21.5907 7.25494 21.551 6.94459 21.3982C6.08982 20.9775 5.60268 20.2158 5.59218 19.2838C5.58001 18.1971 6.21401 17.302 7.23067 16.9706C7.70842 16.8148 8.52293 16.869 8.94507 17.0845ZM33.6285 16.9912C34.1638 17.164 34.7897 17.7238 35.0337 18.248C35.2817 18.7805 35.292 19.6764 35.056 20.1987C34.3913 21.6702 32.4988 22.0761 31.3054 21.0032C30.746 20.5003 30.5289 20.0083 30.5289 19.244C30.5289 18.4803 30.7461 17.9877 31.3041 17.486C31.9636 16.8931 32.7841 16.7185 33.6285 16.9912ZM20.0345 17.6048C19.3209 18.0003 19.637 19.0849 20.4658 19.0849C20.5724 19.0849 20.7758 18.9812 20.9176 18.8544C21.6 18.2447 20.8343 17.1614 20.0345 17.6048ZM7.4388 18.679C7.22527 18.8698 7.18071 18.9672 7.18071 19.244C7.18071 19.5209 7.22527 19.6183 7.4388 19.8091C7.72664 20.0663 7.98631 20.0983 8.33231 19.9195C8.61259 19.7745 8.72851 19.5769 8.72851 19.244C8.72851 18.9112 8.61259 18.7135 8.33231 18.5686C7.98631 18.3897 7.72664 18.4218 7.4388 18.679ZM32.5447 18.5236C32.0999 18.7128 31.9741 19.3856 32.3105 19.7766C32.4699 19.962 32.5656 19.9998 32.8743 19.9998C33.3498 19.9998 33.6301 19.7196 33.6301 19.244C33.6301 18.6878 33.0554 18.3064 32.5447 18.5236Z" fill="black"/>
<path d="M0 23.2104C0 22.7743 0.353521 22.4208 0.789611 22.4208H39.9205C40.3566 22.4208 40.7101 22.7743 40.7101 23.2104C40.7101 23.6465 40.3566 24 39.9205 24H0.789611C0.353521 24 0 23.6465 0 23.2104Z" fill="black"/>
<path d="M9.55083 19.2985C9.55083 20.2029 8.81771 20.936 7.91335 20.936C7.00899 20.936 6.27587 20.2029 6.27587 19.2985C6.27587 18.3942 7.00899 17.661 7.91335 17.661C8.81771 17.661 9.55083 18.3942 9.55083 19.2985Z" fill="black"/>
<path d="M34.5666 19.3252C34.5666 20.2296 33.8335 20.9627 32.9292 20.9627C32.0248 20.9627 31.2917 20.2296 31.2917 19.3252C31.2917 18.4209 32.0248 17.6877 32.9292 17.6877C33.8335 17.6877 34.5666 18.4209 34.5666 19.3252Z" fill="black"/>
</svg>
